<svg width="32" height="32" viewBox="0 0 32 32" fill="none" xmlns="http://www.w3.org/2000/svg">
<path d="M16 2.66666C8.64002 2.66666 2.66669 8.63999 2.66669 16C2.66669 23.36 8.64002 29.3333 16 29.3333C23.36 29.3333 29.3334 23.36 29.3334 16C29.3334 8.63999 23.36 2.66666 16 2.66666ZM22.1867 11.7333C21.9867 13.84 21.12 18.96 20.68 21.32C20.4934 22.32 20.12 22.6533 19.7734 22.6933C19 22.76 18.4134 22.1867 17.6667 21.6933C16.4934 20.92 15.8267 20.44 14.6934 19.6933C13.3734 18.8267 14.2267 18.3467 14.9867 17.5733C15.1867 17.3733 18.6 14.2667 18.6667 13.9867C18.6759 13.9442 18.6747 13.9002 18.6631 13.8584C18.6515 13.8166 18.6298 13.7782 18.6 13.7467C18.52 13.68 18.4134 13.7067 18.32 13.72C18.2 13.7467 16.3334 14.9867 12.6934 17.44C12.16 17.8 11.68 17.9867 11.2534 17.9733C10.7734 17.96 9.86669 17.7067 9.18669 17.48C8.34669 17.2133 7.69335 17.0667 7.74669 16.6C7.77335 16.36 8.10669 16.12 8.73335 15.8667C12.6267 14.1733 15.2134 13.0533 16.5067 12.52C20.2134 10.9733 20.9734 10.7067 21.48 10.7067C21.5867 10.7067 21.84 10.7333 22 10.8667C22.1334 10.9733 22.1734 11.12 22.1867 11.2267C22.1734 11.3067 22.2 11.5467 22.1867 11.7333Z" fill="#4575FA"/>
</svg>
