<svg width="24" height="25" viewBox="0 0 24 25" fill="none" xmlns="http://www.w3.org/2000/svg">
<path d="M9.96938 5.21944L3.21938 11.9694C3.14964 12.0391 3.09432 12.1218 3.05658 12.2129C3.01884 12.3039 2.99941 12.4015 2.99941 12.5001C2.99941 12.5986 3.01884 12.6962 3.05658 12.7873C3.09432 12.8783 3.14964 12.961 3.21938 13.0307L9.96937 19.7807C10.1101 19.9214 10.301 20.0005 10.5 20.0005C10.699 20.0005 10.8899 19.9214 11.0306 19.7807C11.1714 19.64 11.2504 19.4491 11.2504 19.2501C11.2504 19.051 11.1714 18.8602 11.0306 18.7194L5.56031 13.2501L20.25 13.2501C20.4489 13.2501 20.6397 13.1711 20.7803 13.0304C20.921 12.8897 21 12.699 21 12.5001C21 12.3012 20.921 12.1104 20.7803 11.9697C20.6397 11.8291 20.4489 11.7501 20.25 11.7501L5.56031 11.7501L11.0306 6.2807C11.1714 6.13996 11.2504 5.94909 11.2504 5.75007C11.2504 5.55105 11.1714 5.36018 11.0306 5.21944C10.8899 5.07871 10.699 4.99965 10.5 4.99965C10.301 4.99965 10.1101 5.07871 9.96938 5.21944Z" fill="#4575FA"/>
</svg>
