<svg width="20" height="20" viewBox="0 0 20 20" fill="none" xmlns="http://www.w3.org/2000/svg">
<path d="M7.6275 4.50675C8.68333 2.61341 9.21083 1.66675 10 1.66675C10.7892 1.66675 11.3167 2.61341 12.3725 4.50675L12.6458 4.99675C12.9458 5.53508 13.0958 5.80425 13.3292 5.98175C13.5625 6.15925 13.8542 6.22508 14.4375 6.35675L14.9675 6.47675C17.0175 6.94091 18.0417 7.17258 18.2858 7.95675C18.5292 8.74008 17.8308 9.55758 16.4333 11.1917L16.0717 11.6142C15.675 12.0784 15.4758 12.3109 15.3867 12.5976C15.2975 12.8851 15.3275 13.1951 15.3875 13.8142L15.4425 14.3784C15.6533 16.5592 15.7592 17.6492 15.1208 18.1334C14.4825 18.6184 13.5225 18.1759 11.6042 17.2926L11.1067 17.0642C10.5617 16.8126 10.2892 16.6876 10 16.6876C9.71083 16.6876 9.43833 16.8126 8.8925 17.0642L8.39667 17.2926C6.4775 18.1759 5.5175 18.6176 4.88 18.1342C4.24083 17.6492 4.34667 16.5592 4.5575 14.3784L4.6125 13.8151C4.6725 13.1951 4.7025 12.8851 4.6125 12.5984C4.52417 12.3109 4.325 12.0784 3.92833 11.6151L3.56667 11.1917C2.16917 9.55842 1.47083 8.74092 1.71417 7.95675C1.95833 7.17258 2.98333 6.94008 5.03333 6.47675L5.56333 6.35675C6.14583 6.22508 6.43667 6.15925 6.67083 5.98175C6.90417 5.80425 7.05417 5.53508 7.35417 4.99675L7.6275 4.50675Z" fill="#4575FA"/>
</svg>
