<svg width="20" height="10" viewBox="0 0 20 10" fill="none" xmlns="http://www.w3.org/2000/svg">
<path d="M18.4475 0.262836L10.6395 7.94738C10.4692 8.11592 10.2392 8.21045 9.99957 8.21045C9.75993 8.21045 9.52996 8.11592 9.3596 7.94738L1.55164 0.264504C1.38022 0.096055 1.1495 0.00166678 0.909169 0.0016668C0.668836 0.00166682 0.438117 0.0960551 0.266699 0.264505C0.182289 0.346795 0.115205 0.445149 0.0694013 0.55377C0.0235973 0.662392 -6.02295e-07 0.779084 -5.91989e-07 0.896968C-5.81683e-07 1.01485 0.0235974 1.13154 0.0694014 1.24016C0.115205 1.34879 0.182289 1.44714 0.266699 1.52943L8.073 9.21231C8.58718 9.71715 9.27898 10 9.99957 10C10.7202 10 11.412 9.71715 11.9261 9.21231L19.7324 1.52943C19.8171 1.44711 19.8844 1.34865 19.9304 1.23988C19.9763 1.1311 20 1.01422 20 0.896131C20 0.778047 19.9763 0.661161 19.9304 0.552386C19.8844 0.44361 19.8171 0.345152 19.7324 0.262836C19.561 0.0943861 19.3303 -2.05182e-06 19.09 -2.03081e-06C18.8496 -2.0098e-06 18.6189 0.0943862 18.4475 0.262836Z" fill="#4575FA"/>
</svg>
