<svg aria-hidden="true" xmlns="http://www.w3.org/2000/svg" xmlns:xlink="http://www.w3.org/1999/xlink"><symbol viewBox="0 0 20 10" fill="none" id="icon-arrow" xmlns="http://www.w3.org/2000/svg">
<path d="M18.4475 0.262836L10.6395 7.94738C10.4692 8.11592 10.2392 8.21045 9.99957 8.21045C9.75993 8.21045 9.52996 8.11592 9.3596 7.94738L1.55164 0.264504C1.38022 0.096055 1.1495 0.00166678 0.909169 0.0016668C0.668836 0.00166682 0.438117 0.0960551 0.266699 0.264505C0.182289 0.346795 0.115205 0.445149 0.0694013 0.55377C0.0235973 0.662392 -6.02295e-07 0.779084 -5.91989e-07 0.896968C-5.81683e-07 1.01485 0.0235974 1.13154 0.0694014 1.24016C0.115205 1.34879 0.182289 1.44714 0.266699 1.52943L8.073 9.21231C8.58718 9.71715 9.27898 10 9.99957 10C10.7202 10 11.412 9.71715 11.9261 9.21231L19.7324 1.52943C19.8171 1.44711 19.8844 1.34865 19.9304 1.23988C19.9763 1.1311 20 1.01422 20 0.896131C20 0.778047 19.9763 0.661161 19.9304 0.552386C19.8844 0.44361 19.8171 0.345152 19.7324 0.262836C19.561 0.0943861 19.3303 -2.05182e-06 19.09 -2.03081e-06C18.8496 -2.0098e-06 18.6189 0.0943862 18.4475 0.262836Z" fill="currentColor"/>
</symbol><symbol viewBox="0 0 22 14" fill="none" id="icon-burger" xmlns="http://www.w3.org/2000/svg">
<path d="M1 1H21" stroke="currentColor" stroke-width="2" stroke-linecap="round"/>
<path d="M1 7H21" stroke="currentColor" stroke-width="2" stroke-linecap="round"/>
<path d="M1 13H21" stroke="currentColor" stroke-width="2" stroke-linecap="round"/>
</symbol><symbol viewBox="0 0 14 13" fill="none" id="icon-close" xmlns="http://www.w3.org/2000/svg">
<path d="M1 0.5L7 6.5M13 12.5L7 6.5M7 6.5L13 0.5L1 12.5" stroke="currentColor" stroke-linecap="round"/>
</symbol><symbol viewBox="0 0 32 32" fill="none" id="icon-inst" xmlns="http://www.w3.org/2000/svg">
<path d="M10.4 2.66666H21.6C25.8667 2.66666 29.3334 6.13332 29.3334 10.4V21.6C29.3334 23.651 28.5186 25.618 27.0683 27.0683C25.618 28.5186 23.651 29.3333 21.6 29.3333H10.4C6.13335 29.3333 2.66669 25.8667 2.66669 21.6V10.4C2.66669 8.34898 3.48145 6.38198 4.93173 4.9317C6.38201 3.48142 8.34901 2.66666 10.4 2.66666ZM10.1334 5.33332C8.86031 5.33332 7.63942 5.83904 6.73924 6.73921C5.83907 7.63939 5.33335 8.86028 5.33335 10.1333V21.8667C5.33335 24.52 7.48002 26.6667 10.1334 26.6667H21.8667C23.1397 26.6667 24.3606 26.1609 25.2608 25.2608C26.161 24.3606 26.6667 23.1397 26.6667 21.8667V10.1333C26.6667 7.47999 24.52 5.33332 21.8667 5.33332H10.1334ZM23 7.33332C23.442 7.33332 23.866 7.50892 24.1785 7.82148C24.4911 8.13404 24.6667 8.55796 24.6667 8.99999C24.6667 9.44202 24.4911 9.86594 24.1785 10.1785C23.866 10.4911 23.442 10.6667 23 10.6667C22.558 10.6667 22.1341 10.4911 21.8215 10.1785C21.5089 9.86594 21.3334 9.44202 21.3334 8.99999C21.3334 8.55796 21.5089 8.13404 21.8215 7.82148C22.1341 7.50892 22.558 7.33332 23 7.33332ZM16 9.33332C17.7681 9.33332 19.4638 10.0357 20.7141 11.2859C21.9643 12.5362 22.6667 14.2319 22.6667 16C22.6667 17.7681 21.9643 19.4638 20.7141 20.714C19.4638 21.9643 17.7681 22.6667 16 22.6667C14.2319 22.6667 12.5362 21.9643 11.286 20.714C10.0357 19.4638 9.33335 17.7681 9.33335 16C9.33335 14.2319 10.0357 12.5362 11.286 11.2859C12.5362 10.0357 14.2319 9.33332 16 9.33332ZM16 12C14.9392 12 13.9217 12.4214 13.1716 13.1716C12.4214 13.9217 12 14.9391 12 16C12 17.0609 12.4214 18.0783 13.1716 18.8284C13.9217 19.5786 14.9392 20 16 20C17.0609 20 18.0783 19.5786 18.8284 18.8284C19.5786 18.0783 20 17.0609 20 16C20 14.9391 19.5786 13.9217 18.8284 13.1716C18.0783 12.4214 17.0609 12 16 12Z" fill="currentColor"/>
</symbol><symbol viewBox="0 0 32 32" fill="none" id="icon-tg" xmlns="http://www.w3.org/2000/svg">
<path d="M16 2.66666C8.64002 2.66666 2.66669 8.63999 2.66669 16C2.66669 23.36 8.64002 29.3333 16 29.3333C23.36 29.3333 29.3334 23.36 29.3334 16C29.3334 8.63999 23.36 2.66666 16 2.66666ZM22.1867 11.7333C21.9867 13.84 21.12 18.96 20.68 21.32C20.4934 22.32 20.12 22.6533 19.7734 22.6933C19 22.76 18.4134 22.1867 17.6667 21.6933C16.4934 20.92 15.8267 20.44 14.6934 19.6933C13.3734 18.8267 14.2267 18.3467 14.9867 17.5733C15.1867 17.3733 18.6 14.2667 18.6667 13.9867C18.6759 13.9442 18.6747 13.9002 18.6631 13.8584C18.6515 13.8166 18.6298 13.7782 18.6 13.7467C18.52 13.68 18.4134 13.7067 18.32 13.72C18.2 13.7467 16.3334 14.9867 12.6934 17.44C12.16 17.8 11.68 17.9867 11.2534 17.9733C10.7734 17.96 9.86669 17.7067 9.18669 17.48C8.34669 17.2133 7.69335 17.0667 7.74669 16.6C7.77335 16.36 8.10669 16.12 8.73335 15.8667C12.6267 14.1733 15.2134 13.0533 16.5067 12.52C20.2134 10.9733 20.9734 10.7067 21.48 10.7067C21.5867 10.7067 21.84 10.7333 22 10.8667C22.1334 10.9733 22.1734 11.12 22.1867 11.2267C22.1734 11.3067 22.2 11.5467 22.1867 11.7333Z" fill="currentColor"/>
</symbol></svg>