<svg width="10" height="21" viewBox="0 0 10 21" fill="none" xmlns="http://www.w3.org/2000/svg">
<path d="M0.262838 1.63012L7.94738 9.82848C8.11592 10.0074 8.21045 10.2488 8.21045 10.5004C8.21045 10.7521 8.11592 10.9935 7.94738 11.1724L0.264505 19.3708C0.0960553 19.5508 0.00166713 19.793 0.00166712 20.0454C0.0016671 20.2977 0.0960553 20.54 0.264505 20.72C0.346795 20.8086 0.445149 20.879 0.55377 20.9271C0.662392 20.9752 0.779084 21 0.896968 21C1.01485 21 1.13154 20.9752 1.24016 20.9271C1.34878 20.879 1.44714 20.8086 1.52943 20.72L9.2123 12.5234C9.71715 11.9835 10 11.2571 10 10.5004C10 9.74383 9.71715 9.01743 9.2123 8.47754L1.52943 0.280933C1.44711 0.192034 1.34866 0.121368 1.23988 0.0731149C1.13111 0.0248614 1.01422 -3.92781e-07 0.896134 -3.97943e-07C0.778049 -4.03104e-07 0.661164 0.0248614 0.552388 0.0731149C0.443613 0.121368 0.345154 0.192034 0.262838 0.280933C0.0943889 0.460922 7.20089e-07 0.703177 7.09058e-07 0.955526C6.98028e-07 1.20788 0.0943889 1.45013 0.262838 1.63012Z" fill="#4575FA"/>
</svg>
