<svg aria-hidden="true" xmlns="http://www.w3.org/2000/svg" xmlns:xlink="http://www.w3.org/1999/xlink"><symbol viewBox="0 0 20 10" fill="none" id="icon-arrow" xmlns="http://www.w3.org/2000/svg">
<path d="M18.4475 0.262836L10.6395 7.94738C10.4692 8.11592 10.2392 8.21045 9.99957 8.21045C9.75993 8.21045 9.52996 8.11592 9.3596 7.94738L1.55164 0.264504C1.38022 0.096055 1.1495 0.00166678 0.909169 0.0016668C0.668836 0.00166682 0.438117 0.0960551 0.266699 0.264505C0.182289 0.346795 0.115205 0.445149 0.0694013 0.55377C0.0235973 0.662392 -6.02295e-07 0.779084 -5.91989e-07 0.896968C-5.81683e-07 1.01485 0.0235974 1.13154 0.0694014 1.24016C0.115205 1.34879 0.182289 1.44714 0.266699 1.52943L8.073 9.21231C8.58718 9.71715 9.27898 10 9.99957 10C10.7202 10 11.412 9.71715 11.9261 9.21231L19.7324 1.52943C19.8171 1.44711 19.8844 1.34865 19.9304 1.23988C19.9763 1.1311 20 1.01422 20 0.896131C20 0.778047 19.9763 0.661161 19.9304 0.552386C19.8844 0.44361 19.8171 0.345152 19.7324 0.262836C19.561 0.0943861 19.3303 -2.05182e-06 19.09 -2.03081e-06C18.8496 -2.0098e-06 18.6189 0.0943862 18.4475 0.262836Z" fill="currentColor"/>
</symbol><symbol viewBox="0 0 24 25" fill="none" id="icon-arrow-line" xmlns="http://www.w3.org/2000/svg">
<path d="M9.96938 5.21944L3.21938 11.9694C3.14964 12.0391 3.09432 12.1218 3.05658 12.2129C3.01884 12.3039 2.99941 12.4015 2.99941 12.5001C2.99941 12.5986 3.01884 12.6962 3.05658 12.7873C3.09432 12.8783 3.14964 12.961 3.21938 13.0307L9.96937 19.7807C10.1101 19.9214 10.301 20.0005 10.5 20.0005C10.699 20.0005 10.8899 19.9214 11.0306 19.7807C11.1714 19.64 11.2504 19.4491 11.2504 19.2501C11.2504 19.051 11.1714 18.8602 11.0306 18.7194L5.56031 13.2501L20.25 13.2501C20.4489 13.2501 20.6397 13.1711 20.7803 13.0304C20.921 12.8897 21 12.699 21 12.5001C21 12.3012 20.921 12.1104 20.7803 11.9697C20.6397 11.8291 20.4489 11.7501 20.25 11.7501L5.56031 11.7501L11.0306 6.2807C11.1714 6.13996 11.2504 5.94909 11.2504 5.75007C11.2504 5.55105 11.1714 5.36018 11.0306 5.21944C10.8899 5.07871 10.699 4.99965 10.5 4.99965C10.301 4.99965 10.1101 5.07871 9.96938 5.21944Z" fill="currentColor"/>
</symbol><symbol viewBox="0 0 22 14" fill="none" id="icon-burger" xmlns="http://www.w3.org/2000/svg">
<path d="M1 1H21" stroke="currentColor" stroke-width="2" stroke-linecap="round"/>
<path d="M1 7H21" stroke="currentColor" stroke-width="2" stroke-linecap="round"/>
<path d="M1 13H21" stroke="currentColor" stroke-width="2" stroke-linecap="round"/>
</symbol><symbol viewBox="0 0 14 13" fill="none" id="icon-close" xmlns="http://www.w3.org/2000/svg">
<path d="M1 0.5L7 6.5M13 12.5L7 6.5M7 6.5L13 0.5L1 12.5" stroke="currentColor" stroke-linecap="round"/>
</symbol><symbol viewBox="0 0 32 32" fill="none" id="icon-inst" xmlns="http://www.w3.org/2000/svg">
<path d="M10.4 2.66666H21.6C25.8667 2.66666 29.3334 6.13332 29.3334 10.4V21.6C29.3334 23.651 28.5186 25.618 27.0683 27.0683C25.618 28.5186 23.651 29.3333 21.6 29.3333H10.4C6.13335 29.3333 2.66669 25.8667 2.66669 21.6V10.4C2.66669 8.34898 3.48145 6.38198 4.93173 4.9317C6.38201 3.48142 8.34901 2.66666 10.4 2.66666ZM10.1334 5.33332C8.86031 5.33332 7.63942 5.83904 6.73924 6.73921C5.83907 7.63939 5.33335 8.86028 5.33335 10.1333V21.8667C5.33335 24.52 7.48002 26.6667 10.1334 26.6667H21.8667C23.1397 26.6667 24.3606 26.1609 25.2608 25.2608C26.161 24.3606 26.6667 23.1397 26.6667 21.8667V10.1333C26.6667 7.47999 24.52 5.33332 21.8667 5.33332H10.1334ZM23 7.33332C23.442 7.33332 23.866 7.50892 24.1785 7.82148C24.4911 8.13404 24.6667 8.55796 24.6667 8.99999C24.6667 9.44202 24.4911 9.86594 24.1785 10.1785C23.866 10.4911 23.442 10.6667 23 10.6667C22.558 10.6667 22.1341 10.4911 21.8215 10.1785C21.5089 9.86594 21.3334 9.44202 21.3334 8.99999C21.3334 8.55796 21.5089 8.13404 21.8215 7.82148C22.1341 7.50892 22.558 7.33332 23 7.33332ZM16 9.33332C17.7681 9.33332 19.4638 10.0357 20.7141 11.2859C21.9643 12.5362 22.6667 14.2319 22.6667 16C22.6667 17.7681 21.9643 19.4638 20.7141 20.714C19.4638 21.9643 17.7681 22.6667 16 22.6667C14.2319 22.6667 12.5362 21.9643 11.286 20.714C10.0357 19.4638 9.33335 17.7681 9.33335 16C9.33335 14.2319 10.0357 12.5362 11.286 11.2859C12.5362 10.0357 14.2319 9.33332 16 9.33332ZM16 12C14.9392 12 13.9217 12.4214 13.1716 13.1716C12.4214 13.9217 12 14.9391 12 16C12 17.0609 12.4214 18.0783 13.1716 18.8284C13.9217 19.5786 14.9392 20 16 20C17.0609 20 18.0783 19.5786 18.8284 18.8284C19.5786 18.0783 20 17.0609 20 16C20 14.9391 19.5786 13.9217 18.8284 13.1716C18.0783 12.4214 17.0609 12 16 12Z" fill="currentColor"/>
</symbol><symbol viewBox="0 0 20 20" fill="none" id="icon-star" xmlns="http://www.w3.org/2000/svg">
<path d="M7.6275 4.50675C8.68333 2.61341 9.21083 1.66675 10 1.66675C10.7892 1.66675 11.3167 2.61341 12.3725 4.50675L12.6458 4.99675C12.9458 5.53508 13.0958 5.80425 13.3292 5.98175C13.5625 6.15925 13.8542 6.22508 14.4375 6.35675L14.9675 6.47675C17.0175 6.94091 18.0417 7.17258 18.2858 7.95675C18.5292 8.74008 17.8308 9.55758 16.4333 11.1917L16.0717 11.6142C15.675 12.0784 15.4758 12.3109 15.3867 12.5976C15.2975 12.8851 15.3275 13.1951 15.3875 13.8142L15.4425 14.3784C15.6533 16.5592 15.7592 17.6492 15.1208 18.1334C14.4825 18.6184 13.5225 18.1759 11.6042 17.2926L11.1067 17.0642C10.5617 16.8126 10.2892 16.6876 10 16.6876C9.71083 16.6876 9.43833 16.8126 8.8925 17.0642L8.39667 17.2926C6.4775 18.1759 5.5175 18.6176 4.88 18.1342C4.24083 17.6492 4.34667 16.5592 4.5575 14.3784L4.6125 13.8151C4.6725 13.1951 4.7025 12.8851 4.6125 12.5984C4.52417 12.3109 4.325 12.0784 3.92833 11.6151L3.56667 11.1917C2.16917 9.55842 1.47083 8.74092 1.71417 7.95675C1.95833 7.17258 2.98333 6.94008 5.03333 6.47675L5.56333 6.35675C6.14583 6.22508 6.43667 6.15925 6.67083 5.98175C6.90417 5.80425 7.05417 5.53508 7.35417 4.99675L7.6275 4.50675Z" fill="currentColor"/>
</symbol><symbol viewBox="0 0 32 32" fill="none" id="icon-tg" xmlns="http://www.w3.org/2000/svg">
<path d="M16 2.66666C8.64002 2.66666 2.66669 8.63999 2.66669 16C2.66669 23.36 8.64002 29.3333 16 29.3333C23.36 29.3333 29.3334 23.36 29.3334 16C29.3334 8.63999 23.36 2.66666 16 2.66666ZM22.1867 11.7333C21.9867 13.84 21.12 18.96 20.68 21.32C20.4934 22.32 20.12 22.6533 19.7734 22.6933C19 22.76 18.4134 22.1867 17.6667 21.6933C16.4934 20.92 15.8267 20.44 14.6934 19.6933C13.3734 18.8267 14.2267 18.3467 14.9867 17.5733C15.1867 17.3733 18.6 14.2667 18.6667 13.9867C18.6759 13.9442 18.6747 13.9002 18.6631 13.8584C18.6515 13.8166 18.6298 13.7782 18.6 13.7467C18.52 13.68 18.4134 13.7067 18.32 13.72C18.2 13.7467 16.3334 14.9867 12.6934 17.44C12.16 17.8 11.68 17.9867 11.2534 17.9733C10.7734 17.96 9.86669 17.7067 9.18669 17.48C8.34669 17.2133 7.69335 17.0667 7.74669 16.6C7.77335 16.36 8.10669 16.12 8.73335 15.8667C12.6267 14.1733 15.2134 13.0533 16.5067 12.52C20.2134 10.9733 20.9734 10.7067 21.48 10.7067C21.5867 10.7067 21.84 10.7333 22 10.8667C22.1334 10.9733 22.1734 11.12 22.1867 11.2267C22.1734 11.3067 22.2 11.5467 22.1867 11.7333Z" fill="currentColor"/>
</symbol></svg>